<?xml version="1.0" standalone="no"?>
<!DOCTYPE svg PUBLIC "-//W3C//DTD SVG 20010904//EN"
 "http://www.w3.org/TR/2001/REC-SVG-20010904/DTD/svg10.dtd">
<svg version="1.0" xmlns="http://www.w3.org/2000/svg"
 width="300.000000pt" height="300.000000pt" viewBox="0 0 300.000000 300.000000"
 preserveAspectRatio="xMidYMid meet">
<metadata>
Created by potrace 1.10, written by Peter Selinger 2001-2011
</metadata>
<g transform="translate(0.000000,300.000000) scale(0.100000,-0.100000)"
fill="#000000" stroke="none">
<path d="M926 2845 c-63 -22 -92 -59 -145 -186 -85 -201 -134 -394 -148 -578
l-6 -86 -109 -27 c-194 -48 -338 -134 -338 -203 0 -13 14 -40 32 -60 220 -251
1583 -330 2304 -134 86 23 205 74 257 110 l32 23 -20 -23 c-25 -29 -90 -67
-156 -92 -67 -26 -264 -79 -290 -79 -16 0 -19 -3 -11 -12 5 -7 13 -35 17 -61
8 -55 27 -71 93 -82 26 -4 42 -12 42 -21 0 -8 4 -14 10 -14 6 0 8 -27 6 -67
-2 -38 -2 -60 1 -51 2 10 9 18 14 18 6 0 8 -9 4 -20 -3 -11 -2 -27 3 -36 8
-14 11 -11 20 16 13 36 9 50 -14 50 -12 0 -14 7 -10 27 3 16 8 51 11 79 l6 51
-59 13 -60 14 -7 43 c-7 49 -2 63 24 63 35 0 196 51 259 82 68 34 123 83 116
103 -3 7 -1 16 5 20 6 3 11 17 11 31 0 86 -106 152 -340 213 l-105 28 -7 64
c-38 339 -116 611 -202 707 -54 61 -135 68 -302 26 -176 -44 -310 -40 -554 16
-229 53 -313 60 -384 35z m319 -51 c316 -76 440 -81 638 -25 157 45 168 39 47
-26 -251 -135 -332 -130 -785 47 -149 58 -127 59 100 4z m-100 -20 c50 -18
133 -49 185 -69 187 -73 307 -90 415 -61 28 7 100 38 160 68 132 67 154 73
198 54 58 -24 101 -105 152 -286 20 -72 31 -121 60 -280 1 -8 6 -49 10 -90 4
-41 11 -83 17 -93 7 -13 4 -19 -14 -27 -23 -9 -23 -9 4 -9 15 -1 33 -9 40 -18
7 -10 29 -20 48 -21 62 -6 247 -71 297 -105 28 -19 52 -44 58 -61 9 -27 7 -32
-40 -72 -27 -24 -55 -44 -62 -44 -7 0 -21 -4 -31 -9 -20 -11 -74 -33 -117 -49
-16 -6 -56 -16 -87 -23 -32 -7 -58 -15 -58 -18 0 -3 -23 -5 -50 -4 -29 1 -48
-2 -45 -8 6 -9 -1 -11 -72 -13 -22 0 -39 -4 -36 -8 4 -8 -6 -10 -82 -14 -22
-1 -83 -7 -135 -14 -109 -14 -672 -21 -800 -10 -47 4 -125 11 -175 15 -49 3
-112 11 -140 16 -27 6 -61 13 -75 15 -14 3 -37 9 -53 16 -15 6 -43 8 -62 5
-19 -3 -35 -2 -35 3 0 4 -24 13 -52 20 -29 6 -84 23 -123 37 -38 14 -85 30
-102 36 -18 6 -33 14 -33 19 0 4 -5 8 -10 8 -6 0 -26 15 -45 34 -31 32 -33 37
-24 65 18 53 149 118 310 155 32 8 60 12 63 9 3 -3 18 8 33 24 23 25 29 41 31
89 11 205 76 450 169 639 41 84 49 92 99 110 50 18 95 11 209 -31z"/>
<path d="M1095 1691 c150 -33 536 -41 749 -16 71 8 132 18 135 21 3 4 -19 4
-49 0 -213 -28 -460 -34 -660 -16 -58 5 -130 12 -160 14 -49 5 -50 4 -15 -3z"/>
<path d="M215 1671 c39 -44 166 -104 290 -136 54 -14 100 -27 102 -29 2 -1 0
-23 -3 -48 l-6 -44 -59 -13 -59 -12 4 -57 c3 -31 11 -77 19 -102 l15 -45 -4
68 c-2 37 0 67 5 67 11 0 44 -108 66 -215 9 -44 20 -86 25 -95 4 -8 20 -66 35
-128 24 -97 29 -110 41 -95 7 10 9 20 4 23 -5 3 -12 19 -16 35 -4 17 -11 35
-16 42 -5 7 -5 14 1 18 7 4 7 12 1 23 -34 64 -38 81 -23 93 12 11 12 14 -1 21
-9 5 -16 19 -16 31 0 13 -6 29 -12 36 -11 10 -9 15 5 25 15 12 16 14 2 20 -8
3 -15 14 -15 23 0 10 -7 29 -16 42 -14 19 -14 25 -3 33 11 7 11 11 2 15 -24 9
-13 31 22 43 57 19 86 -6 99 -85 10 -60 54 -257 83 -370 14 -55 27 -107 27
-115 1 -9 5 -21 9 -27 10 -16 -28 -40 -75 -48 -31 -6 -38 -4 -38 8 0 9 8 21
18 26 15 9 15 10 -5 11 -13 0 -24 5 -24 10 -1 6 -2 14 -3 19 0 5 -5 13 -10 18
-8 7 -7 -5 10 -87 4 -16 3 -30 -2 -30 -15 0 -34 38 -43 83 -5 23 -21 88 -36
145 -15 57 -25 112 -22 122 3 12 -2 20 -14 23 -11 3 -19 2 -19 -1 2 -28 98
-394 106 -402 5 -5 26 -4 54 5 25 8 64 19 88 25 24 6 46 18 49 26 8 21 -138
646 -156 668 -16 19 -35 19 -133 0 -25 -4 -38 -3 -38 4 0 6 17 14 38 17 71 11
85 24 97 93 11 58 10 62 -7 62 -34 0 -267 69 -331 99 -35 15 -80 43 -102 61
l-40 34 30 -33z"/>
<path d="M710 1491 c34 -13 243 -38 415 -51 180 -13 586 -13 751 0 188 15 407
41 424 52 10 6 4 7 -20 4 -262 -41 -391 -49 -775 -50 -395 0 -424 2 -780 49
-33 4 -35 3 -15 -4z"/>
<path d="M726 1423 c8 -58 11 -63 20 -29 7 31 -2 76 -17 76 -7 0 -8 -17 -3
-47z"/>
<path d="M2269 1455 c-2 -22 -1 -53 1 -72 3 -29 18 15 19 55 1 31 -18 47 -20
17z"/>
<path d="M811 1360 c-75 -16 -88 -44 -52 -111 11 -20 29 -76 40 -125 12 -49
35 -118 52 -153 28 -57 37 -66 86 -88 49 -23 69 -26 177 -26 130 -1 167 8 233
59 40 31 62 70 80 149 33 143 29 136 75 133 l41 -3 26 -105 c30 -119 53 -159
114 -194 120 -71 396 -48 452 37 25 38 54 121 71 200 8 39 23 85 34 102 11 18
20 49 20 69 0 58 -16 61 -308 59 -224 -2 -261 -5 -329 -24 -95 -26 -164 -26
-251 2 -59 19 -93 22 -292 25 -124 2 -245 -1 -269 -6z m444 -31 c103 -12 156
-35 169 -71 11 -32 -25 -195 -57 -259 -41 -81 -130 -115 -287 -107 -100 5
-154 27 -187 76 -34 51 -74 180 -80 259 l-6 72 29 12 c67 26 277 35 419 18z
m887 -9 c69 -20 72 -65 16 -238 -52 -164 -107 -199 -294 -190 -130 7 -193 38
-228 111 -14 29 -34 95 -45 147 -18 86 -18 97 -5 118 21 32 72 51 163 62 94
11 343 4 393 -10z m-614 -39 c8 -4 12 -19 10 -32 -4 -32 -52 -39 -67 -10 -18
33 24 64 57 42z"/>
<path d="M1115 1266 c-49 -17 -128 -42 -175 -55 -94 -27 -130 -47 -65 -38 79
12 345 106 345 122 0 8 -12 5 -105 -29z"/>
<path d="M1875 1264 c-71 -24 -157 -52 -190 -60 -59 -15 -94 -34 -64 -34 55 0
389 115 389 134 0 8 12 11 -135 -40z"/>
<path d="M2308 1333 c-8 -10 -22 -49 -31 -88 -73 -314 -127 -559 -127 -575 0
-14 13 -21 53 -30 28 -7 69 -19 90 -28 26 -10 42 -11 49 -4 5 5 36 114 68 241
32 127 62 236 66 242 4 8 3 9 -4 5 -6 -4 -14 -23 -18 -43 -4 -22 -14 -37 -24
-40 -11 -3 -16 -11 -13 -22 4 -17 -55 -271 -76 -323 -6 -16 -16 -28 -22 -28
-11 0 -10 19 6 100 4 24 4 23 -7 -2 -7 -18 -20 -28 -32 -28 -20 -1 -20 -2 -3
-14 29 -22 21 -39 -14 -32 -17 3 -37 6 -45 6 -19 0 -45 30 -37 43 4 7 8 17 8
22 0 6 13 62 28 125 56 229 76 316 82 360 10 68 28 90 73 90 52 0 71 -14 55
-39 -7 -12 -9 -22 -3 -26 5 -3 2 -17 -6 -33 -7 -15 -14 -33 -14 -40 0 -7 -7
-15 -15 -19 -14 -5 -14 -7 0 -23 11 -12 13 -20 6 -25 -6 -3 -11 -17 -11 -30 0
-13 -8 -29 -17 -34 -15 -9 -15 -12 -5 -19 11 -8 11 -17 1 -51 -7 -22 -16 -41
-21 -41 -5 0 -7 -9 -3 -20 7 -23 -12 -100 -25 -100 -15 0 -12 -17 4 -23 10 -4
20 20 40 96 14 56 35 134 45 172 58 211 70 260 63 266 -10 9 -96 29 -125 29
-13 0 -31 -8 -39 -17z"/>
<path d="M467 1227 c-3 -7 1 -26 8 -42 l13 -30 1 37 c1 37 -13 59 -22 35z"/>
<path d="M485 1113 c13 -31 33 -100 38 -130 3 -15 19 -80 36 -143 17 -63 31
-125 31 -137 0 -21 16 -40 26 -30 5 5 -58 276 -92 394 -8 28 -22 54 -30 57
-12 5 -15 2 -9 -11z"/>
<path d="M2485 1077 c-8 -20 -15 -46 -15 -57 0 -23 -64 -282 -80 -324 -7 -20
-6 -26 4 -26 12 0 35 66 52 150 2 14 9 39 14 55 4 17 11 47 15 67 3 20 14 63
25 95 22 67 10 99 -15 40z"/>
<path d="M2127 635 c-3 -11 -9 -38 -13 -60 -15 -87 -43 -142 -97 -188 -68 -58
-240 -170 -314 -205 -55 -25 -66 -27 -198 -27 -137 0 -142 1 -208 32 -93 44
-262 158 -319 216 -46 46 -70 102 -85 195 -6 32 -23 56 -23 30 1 -25 39 -156
54 -185 42 -83 315 -265 446 -299 48 -12 93 -15 172 -12 101 4 112 7 184 43
109 56 260 159 320 219 45 46 53 60 73 137 13 47 21 95 19 105 -4 18 -4 18
-11 -1z"/>
</g>
</svg>
