<?xml version="1.0" standalone="no"?>
<!DOCTYPE svg PUBLIC "-//W3C//DTD SVG 20010904//EN"
 "http://www.w3.org/TR/2001/REC-SVG-20010904/DTD/svg10.dtd">
<svg version="1.0" xmlns="http://www.w3.org/2000/svg"
 width="384.000000pt" height="384.000000pt" viewBox="0 0 384.000000 384.000000"
 preserveAspectRatio="xMidYMid meet">

<g transform="translate(0.000000,384.000000) scale(0.100000,-0.100000)"
fill="#000000" stroke="none">
<path d="M1192 3641 c-68 -23 -106 -60 -147 -141 -132 -262 -224 -606 -238
-894 l-2 -49 -112 -28 c-215 -54 -378 -129 -431 -198 -33 -42 -35 -98 -6 -138
95 -130 475 -241 1029 -300 245 -26 1036 -26 1270 0 569 63 908 159 1019 289
40 46 45 81 21 127 -42 82 -235 175 -470 226 -44 10 -83 23 -87 29 -4 6 -8 29
-8 51 0 22 -9 102 -20 177 -51 360 -155 676 -251 762 -71 65 -163 70 -357 21
-265 -67 -348 -62 -927 60 -142 29 -211 31 -283 6z"/>
<path d="M781 1934 c1 -5 -1 -35 -5 -66 -9 -63 -9 -63 -114 -84 -46 -9 -52
-22 -37 -78 7 -28 10 -56 7 -65 -3 -9 -1 -12 6 -7 6 3 13 -2 17 -13 3 -11 12
-18 19 -15 17 7 61 -112 75 -204 16 -103 15 -105 -14 -100 -20 4 -24 2 -21
-11 3 -9 32 -123 65 -254 34 -131 64 -243 67 -249 8 -12 44 -7 149 22 103 28
108 33 100 89 -7 53 -151 697 -167 754 -22 74 -71 91 -178 62 -65 -17 -70 -18
-70 -6 0 5 25 15 56 22 79 18 93 32 113 122 l18 77 -21 0 c-11 0 -31 3 -44 6
-13 4 -22 3 -21 -2z"/>
<path d="M3001 1933 c-20 -3 -30 -8 -23 -12 6 -4 18 -38 26 -76 17 -82 33 -98
112 -116 30 -7 58 -17 61 -22 6 -10 -12 -8 -109 13 -98 22 -129 0 -154 -108
-46 -191 -152 -672 -159 -724 l-7 -47 58 -16 c33 -9 86 -25 119 -36 59 -19 60
-19 76 0 8 10 41 124 73 252 31 129 60 243 63 254 5 16 3 18 -8 8 -9 -7 -20
-8 -28 -3 -12 7 -12 18 -3 66 7 31 12 69 12 83 1 43 56 166 73 163 10 -2 20
13 30 45 35 111 34 113 -53 133 -30 7 -60 17 -67 22 -7 5 -15 36 -19 69 -5 46
-10 59 -23 57 -9 0 -31 -3 -50 -5z"/>
<path d="M891 1916 c19 -20 427 -66 619 -70 80 -2 114 -2 75 0 -150 8 -436 36
-559 54 -141 22 -141 22 -135 16z"/>
<path d="M2805 1899 c-112 -17 -396 -44 -545 -53 -36 -2 0 -2 80 0 174 5 590
51 607 67 8 9 1 8 -142 -14z"/>
<path d="M1793 1833 c70 -2 184 -2 255 0 70 1 12 3 -128 3 -140 0 -198 -2
-127 -3z"/>
<path d="M1091 1748 c-41 -5 -89 -15 -108 -23 -27 -12 -33 -20 -34 -47 -2 -50
1 -59 26 -92 12 -17 26 -47 30 -66 49 -249 99 -351 191 -390 58 -25 222 -43
314 -35 94 9 165 35 218 80 59 51 77 87 106 208 34 143 37 147 91 147 l44 0
15 -52 c8 -29 24 -88 35 -131 23 -93 55 -145 113 -185 56 -38 118 -59 203 -67
83 -8 251 9 303 31 86 36 138 122 181 305 19 78 38 134 56 159 21 30 26 47 23
81 -3 41 -5 45 -41 57 -71 23 -216 33 -342 24 -66 -5 -154 -7 -195 -5 -73 4
-124 -3 -311 -46 -78 -17 -94 -18 -155 -6 -38 8 -94 21 -124 30 -89 27 -491
42 -639 23z m544 -53 c145 -25 186 -52 184 -119 0 -23 -3 -35 -6 -28 -4 10
-65 13 -281 12 -263 -1 -282 -3 -370 -26 -52 -14 -99 -23 -106 -21 -17 7 -29
98 -17 129 19 50 99 65 346 67 107 0 200 -5 250 -14z m1036 1 c48 -8 96 -19
107 -25 25 -13 34 -53 23 -106 -5 -22 -9 -32 -10 -22 -1 17 -16 18 -265 15
-145 -2 -259 1 -253 5 7 6 4 6 -7 3 -11 -4 -66 -18 -124 -33 -118 -29 -122
-28 -122 43 0 68 53 104 185 123 98 14 371 12 466 -3z m-1520 -421 c6 5 104
-26 156 -50 44 -21 49 -33 19 -47 -14 -6 -26 -15 -26 -19 0 -5 -6 -7 -12 -5
-7 3 -25 7 -40 10 -40 9 -98 64 -119 114 -24 55 -24 68 -1 24 10 -18 20 -30
23 -27z m975 5 c22 0 154 -48 182 -66 l25 -17 -24 -18 c-13 -10 -32 -19 -41
-19 -19 0 -96 33 -119 52 -19 16 -59 79 -59 93 0 6 5 2 11 -7 5 -10 17 -18 25
-18z"/>
</g>
</svg>
